<mxfile host="app.diagrams.net" modified="2021-06-03T08:54:21.491Z" agent="5.0 (Macintosh; Intel Mac OS X 10_15_7) AppleWebKit/537.36 (KHTML, like Gecko) Chrome/90.0.4430.212 Safari/537.36" etag="ABlaAmP7uPxKwsX-H_ux" version="14.7.4" type="github">
  <diagram id="Jsc8VstDWzV-H0aTUy-R" name="第 1 页">
    <mxGraphModel dx="991" dy="687" grid="1" gridSize="10" guides="1" tooltips="1" connect="1" arrows="1" fold="1" page="1" pageScale="1" pageWidth="827" pageHeight="583" math="0" shadow="0">
      <root>
        <mxCell id="0" />
        <mxCell id="1" parent="0" />
        <mxCell id="zYXziMpYx-iiHaBFZfo8-1" value="视觉设计" style="rounded=0;whiteSpace=wrap;html=1;fillColor=#76608a;strokeColor=#432D57;fontColor=#ffffff;" vertex="1" parent="1">
          <mxGeometry x="320" y="90" width="120" height="40" as="geometry" />
        </mxCell>
        <mxCell id="zYXziMpYx-iiHaBFZfo8-10" style="edgeStyle=orthogonalEdgeStyle;rounded=0;orthogonalLoop=1;jettySize=auto;html=1;exitX=0.5;exitY=0;exitDx=0;exitDy=0;entryX=0.5;entryY=1;entryDx=0;entryDy=0;" edge="1" parent="1" source="zYXziMpYx-iiHaBFZfo8-2" target="zYXziMpYx-iiHaBFZfo8-1">
          <mxGeometry relative="1" as="geometry" />
        </mxCell>
        <mxCell id="zYXziMpYx-iiHaBFZfo8-2" value="界面 低保真设计" style="rounded=0;whiteSpace=wrap;html=1;fillColor=#76608a;strokeColor=#432D57;fontColor=#ffffff;" vertex="1" parent="1">
          <mxGeometry x="320" y="170" width="120" height="40" as="geometry" />
        </mxCell>
        <mxCell id="zYXziMpYx-iiHaBFZfo8-9" style="edgeStyle=orthogonalEdgeStyle;rounded=0;orthogonalLoop=1;jettySize=auto;html=1;exitX=0.5;exitY=0;exitDx=0;exitDy=0;entryX=0.5;entryY=1;entryDx=0;entryDy=0;" edge="1" parent="1" source="zYXziMpYx-iiHaBFZfo8-4" target="zYXziMpYx-iiHaBFZfo8-2">
          <mxGeometry relative="1" as="geometry" />
        </mxCell>
        <mxCell id="zYXziMpYx-iiHaBFZfo8-4" value="信息架构" style="rounded=0;whiteSpace=wrap;html=1;fillColor=#76608a;strokeColor=#432D57;fontColor=#ffffff;" vertex="1" parent="1">
          <mxGeometry x="320" y="250" width="120" height="40" as="geometry" />
        </mxCell>
        <mxCell id="zYXziMpYx-iiHaBFZfo8-8" style="edgeStyle=orthogonalEdgeStyle;rounded=0;orthogonalLoop=1;jettySize=auto;html=1;exitX=0.5;exitY=0;exitDx=0;exitDy=0;" edge="1" parent="1" source="zYXziMpYx-iiHaBFZfo8-6" target="zYXziMpYx-iiHaBFZfo8-4">
          <mxGeometry relative="1" as="geometry" />
        </mxCell>
        <mxCell id="zYXziMpYx-iiHaBFZfo8-6" value="功能 / 内容" style="rounded=0;whiteSpace=wrap;html=1;fillColor=#76608a;strokeColor=#432D57;fontColor=#ffffff;" vertex="1" parent="1">
          <mxGeometry x="320" y="330" width="120" height="40" as="geometry" />
        </mxCell>
        <mxCell id="zYXziMpYx-iiHaBFZfo8-14" style="edgeStyle=orthogonalEdgeStyle;rounded=0;orthogonalLoop=1;jettySize=auto;html=1;exitX=0.5;exitY=0;exitDx=0;exitDy=0;entryX=0.5;entryY=1;entryDx=0;entryDy=0;" edge="1" parent="1" source="zYXziMpYx-iiHaBFZfo8-11" target="zYXziMpYx-iiHaBFZfo8-6">
          <mxGeometry relative="1" as="geometry" />
        </mxCell>
        <mxCell id="zYXziMpYx-iiHaBFZfo8-11" value="用户需求 / 产品目标" style="rounded=0;whiteSpace=wrap;html=1;fillColor=#76608a;strokeColor=#432D57;fontColor=#ffffff;" vertex="1" parent="1">
          <mxGeometry x="320" y="410" width="120" height="40" as="geometry" />
        </mxCell>
        <mxCell id="zYXziMpYx-iiHaBFZfo8-15" value="" style="endArrow=classic;html=1;startArrow=classic;startFill=1;" edge="1" parent="1">
          <mxGeometry width="50" height="50" relative="1" as="geometry">
            <mxPoint x="260" y="440" as="sourcePoint" />
            <mxPoint x="260" y="100" as="targetPoint" />
          </mxGeometry>
        </mxCell>
        <mxCell id="zYXziMpYx-iiHaBFZfo8-17" value="战略层" style="text;html=1;align=left;verticalAlign=middle;resizable=0;points=[];autosize=1;strokeColor=none;fontColor=#7A7A7A;" vertex="1" parent="1">
          <mxGeometry x="320" y="450" width="50" height="20" as="geometry" />
        </mxCell>
        <mxCell id="zYXziMpYx-iiHaBFZfo8-19" value="范围层" style="text;html=1;align=left;verticalAlign=middle;resizable=0;points=[];autosize=1;strokeColor=none;fontColor=#7A7A7A;" vertex="1" parent="1">
          <mxGeometry x="320" y="370" width="50" height="20" as="geometry" />
        </mxCell>
        <mxCell id="zYXziMpYx-iiHaBFZfo8-21" value="结构层" style="text;html=1;align=left;verticalAlign=middle;resizable=0;points=[];autosize=1;strokeColor=none;fontColor=#7A7A7A;" vertex="1" parent="1">
          <mxGeometry x="320" y="290" width="50" height="20" as="geometry" />
        </mxCell>
        <mxCell id="zYXziMpYx-iiHaBFZfo8-23" value="框架层" style="text;html=1;align=left;verticalAlign=middle;resizable=0;points=[];autosize=1;strokeColor=none;fontColor=#7A7A7A;" vertex="1" parent="1">
          <mxGeometry x="320" y="210" width="50" height="20" as="geometry" />
        </mxCell>
        <mxCell id="zYXziMpYx-iiHaBFZfo8-25" value="表现层" style="text;html=1;align=left;verticalAlign=middle;resizable=0;points=[];autosize=1;strokeColor=none;fontColor=#7A7A7A;" vertex="1" parent="1">
          <mxGeometry x="320" y="130" width="50" height="20" as="geometry" />
        </mxCell>
        <mxCell id="zYXziMpYx-iiHaBFZfo8-27" value="用户体验要素" style="text;html=1;align=center;verticalAlign=middle;resizable=0;points=[];autosize=1;strokeColor=none;fontColor=#7A7A7A;" vertex="1" parent="1">
          <mxGeometry x="330" y="500" width="90" height="20" as="geometry" />
        </mxCell>
        <mxCell id="zYXziMpYx-iiHaBFZfo8-28" value="具体" style="text;html=1;align=center;verticalAlign=middle;resizable=0;points=[];autosize=1;strokeColor=none;fontColor=#7A7A7A;" vertex="1" parent="1">
          <mxGeometry x="210" y="100" width="40" height="20" as="geometry" />
        </mxCell>
        <mxCell id="zYXziMpYx-iiHaBFZfo8-29" value="抽象" style="text;html=1;align=center;verticalAlign=middle;resizable=0;points=[];autosize=1;strokeColor=none;fontColor=#7A7A7A;" vertex="1" parent="1">
          <mxGeometry x="220" y="420" width="40" height="20" as="geometry" />
        </mxCell>
        <mxCell id="zYXziMpYx-iiHaBFZfo8-30" value="" style="endArrow=classic;html=1;startArrow=classic;startFill=1;align=left;" edge="1" parent="1">
          <mxGeometry width="50" height="50" relative="1" as="geometry">
            <mxPoint x="489" y="440" as="sourcePoint" />
            <mxPoint x="489" y="100" as="targetPoint" />
            <Array as="points" />
          </mxGeometry>
        </mxCell>
        <mxCell id="zYXziMpYx-iiHaBFZfo8-34" value="落地" style="edgeLabel;html=1;align=center;verticalAlign=middle;resizable=0;points=[];fontColor=#7A7A7A;" vertex="1" connectable="0" parent="zYXziMpYx-iiHaBFZfo8-30">
          <mxGeometry x="0.9333" y="-1" relative="1" as="geometry">
            <mxPoint x="19" y="-2" as="offset" />
          </mxGeometry>
        </mxCell>
        <mxCell id="zYXziMpYx-iiHaBFZfo8-35" value="概念" style="edgeLabel;html=1;align=center;verticalAlign=middle;resizable=0;points=[];fontColor=#7A7A7A;" vertex="1" connectable="0" parent="zYXziMpYx-iiHaBFZfo8-30">
          <mxGeometry x="-0.9147" relative="1" as="geometry">
            <mxPoint x="20" y="4" as="offset" />
          </mxGeometry>
        </mxCell>
      </root>
    </mxGraphModel>
  </diagram>
</mxfile>
